# xmcd
#
# Track frame offsets:
#	150
#	12512
#	24943
#	40551
#	56285
#	72406
#	84366
#	95909
#	119542
#	129234
#	140936
#	153205
#	166098
#	178643
#
# Disc length: 2522 seconds
#
# Revision: 0
# Processed by: cddbd v1.4PL0 Copyright (c) Steve Scherf et al.
# Submitted via: EasyCDDAExtractor 4.6.9.1
#
DISCID=b109d80e
DTITLE=Lindpriid 4 - Kavaleer
DYEAR=1900
DGENRE=Pop
TTITLE0=Kavaleer
TTITLE1=Meri
TTITLE2=Punane veski
TTITLE3=Hing on täis
TTITLE4=Elu roosides
TTITLE5=Lootus
TTITLE6=Mõtte nukker viis
TTITLE7=Kõikjal sind vaid näen
TTITLE8=Armurõõm
TTITLE9=Veinist magusam
TTITLE10=Ootan sind
TTITLE11=Tütre kiri isale
TTITLE12=Vaid sina, Niina
TTITLE13=Mustlasromanss
EXTD=
EXTT0=
EXTT1=
EXTT2=
EXTT3=
EXTT4=
EXTT5=
EXTT6=
EXTT7=
EXTT8=
EXTT9=
EXTT10=
EXTT11=
EXTT12=
EXTT13=
PLAYORDER=
